# AST/ASF file generated using VICON BodyLanguage
# -----------------------------------------------
:version 1.10
:name VICON
:units
  mass 1.0
  length 0.45
  angle deg
:documentation
   .ast/.asf automatically generated from VICON data using
   VICON BodyBuilder and BodyLanguage model FoxedUp or BRILLIANT.MOD
:root
   order TX TY TZ RX RY RZ
   axis XYZ
   position 0 0 0  
   orientation 0 0 0 
:bonedata
  begin
     id 1 
     name lhipjoint
     direction 0.690799 -0.707083 0.151096 
     length 2.54797 
     axis 0 0 0  XYZ
  end
  begin
     id 2 
     name lfemur
     direction 0.34202 -0.939693 0  
     length 7.21646  
     axis 0 0 20  XYZ
    dof rx ry rz
    limits (-160.0 20.0)
           (-70.0 70.0)
           (-60.0 70.0)
  end
  begin
     id 3 
     name ltibia
     direction 0.34202 -0.939693 0   
     length 8.16759   
     axis 0 0 20   XYZ
    dof rx
    limits (-10.0 170.0)
  end
  begin
     id 4 
     name lfoot
     direction 0.0487203 -0.133858 0.989802   
     length 1.93375   
     axis -90 7.62852e-016 20   XYZ
    dof rx rz
    limits (-45.0 90.0)
           (-70.0 20.0)
  end
  begin
     id 5 
     name ltoes
     direction 1.53453e-011 -4.21783e-011 1   
     length 0.979747   
     axis -90 7.62852e-016 20   XYZ
    dof rx
    limits (-90.0 20.0)
  end
  begin
     id 6 
     name rhipjoint
     direction -0.694693 -0.703425 0.150315   
     length 2.56122  
     axis 0 0 0  XYZ 
  end
  begin
     id 7 
     name rfemur
     direction -0.34202 -0.939693 0   
     length 7.36786   
     axis 0 0 -20   XYZ
    dof rx ry rz
    limits (-160.0 20.0)
           (-70.0 70.0)
           (-70.0 60.0)
  end
  begin
     id 8 
     name rtibia
     direction -0.34202 -0.939693 0   
     length 8.07288   
     axis 0 0 -20   XYZ
    dof rx
    limits (-10.0 170.0)
 end
 begin
     id 9 
     name rfoot
     direction -0.0428397 -0.117701 0.992125   
     length 1.88295  
     axis -90 -7.62852e-016 -20   XYZ
    dof rx rz
    limits (-45.0 90.0)
           (-20.0 70.0)
  end
  begin
     id 10 
     name rtoes
     direction -1.53456e-011 -4.2187e-011 1   
     length 0.955578   
     axis -90 -7.62852e-016 -20   XYZ
    dof rx
    limits (-90.0 20.0)
  end
  begin
     id 11 
     name lowerback
     direction 0.0288145 0.999398 -0.0193241   
     length 1.92149   
     axis 0 0 0   XYZ
    dof rx ry rz
    limits (-20.0 45.0)
           (-30.0 30.0)
           (-30.0 30.0)
  end
  begin
     id 12 
     name upperback
     direction 0.0233784 0.998099 0.0570278   
     length 1.90435   
     axis 0 0 0   XYZ
    dof rx ry rz
    limits (-20.0 45.0)
           (-30.0 30.0)
           (-30.0 30.0)
  end
  begin
     id 13 
     name thorax
     direction 0.0096694 0.997833 0.0650817   
     length 1.9111   
     axis 0 0 0   XYZ
    dof rx ry rz
    limits (-20.0 45.0)
           (-30.0 30.0)
           (-30.0 30.0)
  end
  begin
     id 14 
     name lowerneck
     direction 0.00516803 0.999916 0.0118722   
     length 1.74664   
     axis 0 0 0   XYZ
    dof rx ry rz
    limits (-20.0 45.0)
           (-30.0 30.0)
           (-30.0 30.0)
  end
  begin
     id 15 
     name upperneck
     direction -0.0510851 0.996117 -0.071696   
     length 1.68498   
     axis 0 0 0   XYZ
    dof rx ry rz
    limits (-20.0 45.0)
           (-30.0 30.0)
           (-30.0 30.0)
  end
  begin
     id 16
     name head
     direction -0.019188 0.999436 -0.0275702  
     length 1.83483  
     axis 0 0 0   XYZ
    dof rx ry rz
    limits (-20.0 45.0)
           (-30.0 30.0)
           (-30.0 30.0)
  end
  begin
     id 17 
     name lclavicle
     direction 0.967006 0.248456 -0.0562957  
     length 3.39395  
     axis 0 0 0   XYZ
    dof ry rz
    limits (-20.0 10.0)
           (0.0 20.0)
  end
  begin
     id 18 
     name lhumerus
     direction 1 -4.48962e-011 -5.62711e-019   
     length 5.24318   
     axis 180 -30 -90   XYZ
    dof rx ry rz
    limits (-60.0 90.0)
           (-90.0 90.0)
           (-90.0 90.0)
  end
  begin
     id 19
     name lradius
     direction 1 -4.48966e-011 7.90625e-027   
     length 2.98999   
     axis 180 -30 -90   XYZ
    dof rx
    limits (-10.0 170.0)
  end
  begin
     id 20
     name lwrist
     direction 1 -4.48959e-011 1.61068e-026   
     length 1.49499   
     axis -9.31229e-015 90 90   XYZ
    dof ry
    limits (-180.0 0.0)
 end
  begin
     id 21 
     name lhand
     direction 1 -4.49017e-011 3.22136e-026   
     length 0.726745   
     axis -2.0555e-014 90 90   XYZ
    dof rx rz
    limits (-90.0 90.0)
           (-45.0 45.0)
  end
  begin
     id 22 
     name lfingers
     direction 1 -4.4898e-011 6.44272e-026   
     length 0.58592   
     axis -4.11101e-014 90 90   XYZ
    dof rx
    limits (0.0 90.0)
  end
  begin
     id 23
     name lthumb
     direction 0.707107 -6.34922e-011 0.707107   
     length 0.841268   
     axis -90 45 2.85299e-015   XYZ
    dof rx rz
    limits (-45.0 45.0)
           (-45.0 45.0)
  end
  begin
     id 24 
     name rclavicle
     direction -0.972232 0.230238 0.0419005   
     length 3.40416  
     axis 0 0 0   XYZ 
    dof ry rz
    limits (-10.0 20.0)
           (-20.0 0.0)
  end
  begin
     id 25 
     name rhumerus
     direction -1 -4.48976e-011 2.48487e-027  
     length 5.37045   
     axis 180 30 90   XYZ
    dof rx ry rz
    limits (-90.0 60.0)
           (-90.0 90.0)
           (-90.0 90.0)
  end
  begin
     id 26 
     name rradius
     direction -1 -4.48942e-011 7.87951e-027   
     length 2.92792   
     axis 180 30 90   XYZ
    dof rx
    limits (-10.0 170.0)
  end
  begin
     id 27 
     name rwrist
     direction -1 -4.48969e-011 1.61068e-026   
     length 1.46396   
     axis -9.31229e-015 -90 -90   XYZ
    dof ry
    limits (-180.0 0.0)
  end
  begin
     id 28
     name rhand
     direction -1 -4.49043e-011 3.22136e-026   
     length 0.784497   
     axis -2.0555e-014 -90 -90   XYZ
    dof rx rz
    limits (-90.0 90.0)
           (-45.0 45.0)
  end
  begin
     id 29
     name rfingers
     direction -1 -4.48823e-011 6.44272e-026   
     length 0.632482   
     axis -4.11101e-014 -90 -90   XYZ
    dof rx
    limits (0.0 90.0)
  end
  begin
     id 30
     name rthumb
     direction -0.707107 -6.34923e-011 0.707107   
     length 0.908121   
     axis -90 -45 -2.85299e-015   XYZ
    dof rx rz
    limits (-45.0 45.0)
           (-45.0 45.0)
  end
:hierarchy
  begin
    root lhipjoint rhipjoint lowerback
    lhipjoint lfemur
    lfemur ltibia
    ltibia lfoot
    lfoot ltoes
    rhipjoint rfemur
    rfemur rtibia
    rtibia rfoot
    rfoot rtoes
    lowerback upperback
    upperback thorax
    thorax lowerneck lclavicle rclavicle
    lowerneck upperneck
    upperneck head
    lclavicle lhumerus
    lhumerus lradius
    lradius lwrist
    lwrist lhand lthumb
    lhand lfingers
    rclavicle rhumerus
    rhumerus rradius
    rradius rwrist
    rwrist rhand rthumb
    rhand rfingers
  end

#!OML:ASF E:\Style6\Style6.ASF
:FULLY-SPECIFIED
:DEGREES
694
root -0.332574 17.0101 0.462621 -17.1676 7.62505 -2.19365
lowerback -1.38016 6.9018 3.38268
upperback 4.13158 9.36646 -4.05044
thorax 6.32957 4.94158 -5.3849
lowerneck -3.55973 4.30806 7.15075
upperneck 38.3215 6.2588 -0.622272
head 13.9218 3.87873 -0.693888
rclavicle -7.17613e-014 -2.38542e-014
rhumerus 37.0943 65.8956 -56.0421
rradius 76.2201
rwrist -44.6922
rhand -51.2693 2.73927
rfingers 7.12502
rthumb -23.8069 -25.8057
lclavicle -7.17613e-014 -2.38542e-014
lhumerus 12.8873 -46.2381 50.2729
lradius 83.2659
lwrist 20.4611
lhand -25.1812 32.8184
lfingers 7.12502
lthumb 1.33652 62.794
rfemur 2.51608 -10.2703 19.8811
rtibia 42.9528
rfoot -21.6352 -9.66661
rtoes -13.2254
lfemur -1.91818 -0.725945 -13.9607
ltibia 45.2648
lfoot -20.6995 3.52472
ltoes -27.5144
695
root -0.340305 16.9866 0.425327 -16.8619 7.99724 -2.73759
lowerback -1.28371 6.63636 3.42864
upperback 4.17167 8.98276 -3.65067
thorax 6.20214 4.73684 -5.04182
lowerneck -3.77639 4.33948 6.98205
upperneck 38.1356 6.36996 -0.837159
head 13.8857 3.87059 -0.733674
rclavicle -6.77856e-014 -1.11319e-014
rhumerus 38.3204 65.1119 -54.3355
rradius 74.9197
rwrist -44.3824
rhand -50.856 3.44364
rfingers 7.12502
rthumb -23.4105 -25.1524
lclavicle -6.77856e-014 -1.11319e-014
lhumerus 14.9781 -46.2763 50.3768
lradius 80.5434
lwrist 20.0689
lhand -25.7798 32.8459
lfingers 7.12502
lthumb 0.758424 62.8243
rfemur 1.82125 -10.7369 20.4972
rtibia 43.2814
rfoot -21.8641 -9.66608
rtoes -11.4658
lfemur -3.0949 -0.81166 -13.3195
ltibia 46.1486
lfoot -20.9743 3.09943
ltoes -27.485
696
root -0.346893 16.9632 0.38652 -16.6526 8.27102 -3.23402
lowerback -1.10289 6.39861 3.48629
upperback 4.26365 8.64129 -3.25841
thorax 6.09578 4.55674 -4.71431
lowerneck -4.05277 4.37982 6.82769
upperneck 37.9351 6.4843 -1.04916
head 13.8574 3.86485 -0.772377
rclavicle -5.725e-014 -2.54444e-014
rhumerus 39.8574 64.4347 -52.33
rradius 73.6443
rwrist -43.4425
rhand -50.4691 3.91656
rfingers 7.12502
rthumb -23.0393 -24.7263
lclavicle -5.725e-014 -2.54444e-014
lhumerus 17.1074 -46.2918 50.3525
lradius 77.7921
lwrist 19.794
lhand -26.2797 32.7689
lfingers 7.12502
lthumb 0.275635 62.7484
rfemur 1.20458 -11.1424 21.0615
rtibia 43.6205
rfoot -22.1823 -9.59304
rtoes -9.38912
lfemur -4.12648 -0.889392 -12.7466
ltibia 47.0342
lfoot -21.1965 2.90136
ltoes -28.0031
697
root -0.352564 16.9387 0.347288 -16.4228 8.51571 -3.78275
lowerback -0.995101 6.14193 3.68885
upperback 4.39561 8.27266 -2.90605
thorax 6.10385 4.37419 -4.49709
lowerneck -4.42598 4.4377 6.68254
upperneck 37.745 6.61723 -1.26911
head 13.8576 3.86498 -0.810164
rclavicle 2.127e-014 2.22639e-014
rhumerus 41.5769 63.7442 -50.401
rradius 72.1147
rwrist -41.9133
rhand -50.1395 4.36097
rfingers 7.12502
rthumb -22.7229 -24.321
lclavicle 2.127e-014 2.22639e-014
lhumerus 19.2546 -46.2541 50.1832
lradius 75.0439
lwrist 19.8142
lhand -26.7632 32.336
lfingers 7.12502
lthumb -0.191373 62.3157
rfemur 0.509984 -11.5752 21.6712
rtibia 44.0077
rfoot -22.5166 -9.41583
rtoes -7.11329
lfemur -5.1817 -1.06357 -12.1585
ltibia 47.9136
lfoot -21.4259 2.83083
ltoes -28.3904
698
root -0.358469 16.9105 0.308867 -16.2112 8.72822 -4.39887
lowerback -0.948654 5.89215 4.04128
upperback 4.53697 7.90934 -2.59069
thorax 6.18798 4.20432 -4.39124
lowerneck -4.79157 4.50096 6.67342
upperneck 37.5677 6.75354 -1.53874
head 13.8726 3.87912 -0.890563
rclavicle 6.26172e-015 -2.22639e-014
rhumerus 43.3102 63.0458 -48.6629
rradius 70.5275
rwrist -40.729
rhand -50.0218 4.88421
rfingers 7.12502
rthumb -22.6101 -23.8116
lclavicle 6.26172e-015 -2.22639e-014
lhumerus 21.2968 -46.1494 50.063
lradius 72.248
lwrist 19.8572
lhand -27.1627 31.9335
lfingers 7.12502
lthumb -0.577249 61.9125
rfemur -0.225026 -12.0793 22.3184
rtibia 44.4584
rfoot -22.6777 -9.3186
rtoes -5.97103
lfemur -6.20271 -1.32777 -11.5228
ltibia 48.7585
lfoot -21.6146 2.80598
ltoes -28.4375
699
root -0.362341 16.8823 0.269757 -16.009 8.91476 -4.8798
lowerback -0.793703 5.65544 4.25122
upperback 4.63237 7.57237 -2.30003
thorax 6.14763 4.03912 -4.24515
lowerneck -5.07144 4.55609 6.72119
upperneck 37.3699 6.88407 -1.83923
head 13.8643 3.89614 -0.99622
rclavicle -4.67144e-015 2.54444e-014
rhumerus 44.4133 62.3273 -47.6826
rradius 68.781
rwrist -39.4247
rhand -49.6663 5.80231
rfingers 7.12502
rthumb -22.2688 -22.9346
lclavicle -4.67144e-015 2.54444e-014
lhumerus 23.1752 -46.0102 50.0215
lradius 69.3614
lwrist 19.5383
lhand -27.4393 31.4088
lfingers 7.12502
lthumb -0.844413 61.3869
rfemur -0.96464 -12.6228 22.768
rtibia 44.975
rfoot -22.5899 -9.29428
rtoes -6.36854
lfemur -7.15196 -1.46249 -11.0091
ltibia 49.5264
lfoot -21.76 2.72251
ltoes -28.416
700
root -0.36477 16.8561 0.234844 -15.7472 9.16136 -5.07978
lowerback -0.515657 5.44487 3.98618
upperback 4.62475 7.28741 -1.97146
thorax 5.86379 3.86982 -3.8135
lowerneck -5.22482 4.55259 6.65557
upperneck 37.191 6.98085 -2.19053
head 13.8316 3.88071 -1.11032
rclavicle -2.16675e-014 2.70347e-014
rhumerus 44.6539 61.6703 -47.5376
rradius 66.8789
rwrist -37.8189
rhand -49.1121 7.07424
rfingers 7.12502
rthumb -21.7366 -21.7253
lclavicle -2.16675e-014 2.70347e-014
lhumerus 24.8039 -46.0124 50.2491
lradius 66.4502
lwrist 18.9423
lhand -28.1654 30.8321
lfingers 7.12502
lthumb -1.54566 60.8062
rfemur -1.70484 -13.1502 22.8751
rtibia 45.5392
rfoot -22.5612 -9.17209
rtoes -6.92572
lfemur -8.06237 -1.55527 -10.8192
ltibia 50.2296
lfoot -21.9269 2.656
ltoes -28.5882
701
root -0.365378 16.8322 0.204878 -15.4763 9.46326 -4.95128
lowerback -0.248141 5.289 3.47205
upperback 4.63839 7.09096 -1.79162
thorax 5.61172 3.74013 -3.38885
lowerneck -5.47301 4.51313 6.60153
upperneck 37.1166 6.98176 -2.42505
head 13.8584 3.83891 -1.18885
rclavicle -5.86415e-014 3.18055e-015
rhumerus 44.8459 60.962 -47.5197
rradius 65.0378
rwrist -36.5408
rhand -48.6822 8.35257
rfingers 7.12502
rthumb -21.3238 -20.4942
lclavicle -5.86415e-014 3.18055e-015
lhumerus 26.5853 -46.0522 50.3681
lradius 63.4571
lwrist 17.9671
lhand -28.9567 30.1798
lfingers 7.12502
lthumb -2.30987 60.1471
rfemur -2.34468 -13.6584 22.5848
rtibia 46.11
rfoot -22.6242 -8.90094
rtoes -7.24468
lfemur -8.84484 -1.74224 -11.0499
ltibia 50.8647
lfoot -22.0328 2.56936
ltoes -28.1971
702
root -0.365179 16.8023 0.172599 -15.1221 9.62218 -5.02505
lowerback -0.186215 5.15986 3.31773
upperback 4.66562 6.91583 -1.64905
thorax 5.54975 3.64135 -3.17481
lowerneck -5.71622 4.50253 6.6074
upperneck 36.9442 6.98012 -2.58818
head 13.839 3.81107 -1.25013
rclavicle 1.82882e-014 6.36111e-015
rhumerus 45.2865 60.2306 -47.4555
rradius 63.2333
rwrist -35.4843
rhand -48.3921 9.12938
rfingers 7.12502
rthumb -21.0451 -19.7487
lclavicle 1.82882e-014 6.36111e-015
lhumerus 28.5311 -46.0404 50.2212
lradius 60.4202
lwrist 16.8203
lhand -29.9165 29.504
lfingers 7.12502
lthumb -3.23685 59.4591
rfemur -3.12798 -14.1189 22.5778
rtibia 46.6611
rfoot -22.7172 -8.5711
rtoes -7.31404
lfemur -9.77406 -1.83813 -11.0158
ltibia 51.5065
lfoot -22.1069 2.58572
ltoes -28.2564
